<?xml version="1.0" encoding="utf-8"?>
<!-- Generator: Adobe Illustrator 19.0.1, SVG Export Plug-In . SVG Version: 6.00 Build 0)  -->
<svg version="1.1" xmlns="http://www.w3.org/2000/svg" xmlns:xlink="http://www.w3.org/1999/xlink" x="0px" y="0px"
	 viewBox="0 0 237 69" style="enable-background:new 0 0 237 69;" xml:space="preserve">
<style type="text/css">
	.st0{fill:#FFFFFF;}
	.st1{enable-background:new    ;}
	.st2{fill-rule:evenodd;clip-rule:evenodd;fill:#81ABC8;}
	.st3{display:none;enable-background:new    ;}
	.st4{display:inline;}
	.st5{fill-rule:evenodd;clip-rule:evenodd;fill:#FFFFFF;}
</style>
<g id="NULLED">
	<g>
		<path class="st0" d="M91.1,45h-2.6V24h3.8l14.1,17.3V24h2.6v21h-2.7L91.1,26.2V45z"/>
		<path class="st0" d="M133.9,24v13.1c0,2.5-0.9,4.5-2.7,6c-1.8,1.5-4.3,2.3-7.6,2.3c-3.3,0-5.8-0.8-7.6-2.3s-2.7-3.5-2.7-6V24h2.7
			v13.2c0,2,0.7,3.6,2,4.6c1.3,1.1,3.2,1.6,5.5,1.6s4.1-0.5,5.5-1.6c1.4-1.1,2-2.6,2-4.6V24H133.9z"/>
		<path class="st0" d="M140.8,43.1h12.6V45h-15.4V24h2.7V43.1z"/>
		<path class="st0" d="M158.1,43.1h12.6V45h-15.4V24h2.7V43.1z"/>
		<path class="st0" d="M175.4,25.9v7.6h10.1v1.9h-10.1v7.8h13.9V45h-16.6V24h15.7v1.9H175.4z"/>
		<path class="st0" d="M212.1,38.6c-0.5,1.2-1.3,2.3-2.4,3.2s-2.4,1.7-4.1,2.3c-1.7,0.6-3.6,0.8-5.8,0.8H192V24h8.1
			c2.3,0,4.3,0.3,5.9,0.9s3,1.4,4,2.4c1,1,1.7,2.2,2.2,3.4c0.5,1.3,0.7,2.7,0.7,4.2C212.9,36.2,212.6,37.5,212.1,38.6z M209.6,31.5
			c-0.3-1-0.9-1.9-1.6-2.8c-0.7-0.9-1.8-1.6-3.3-2.1c-1.4-0.5-3.1-0.8-5.1-0.8h-4.8v17.2h4.4c7.3,0,11-2.8,11-8.4
			C210.1,33.6,209.9,32.5,209.6,31.5z"/>
	</g>
</g>
<g id="EXPECT_THE_UNEXPECTED">
	<g>
		<path class="st0" d="M110.9,49.7v1.9h2.5v0.5h-2.5v2h3.5v0.5h-4.2v-5.2h3.9v0.5H110.9z"/>
		<path class="st0" d="M117.6,51.9l-2.3-2.6h0.8l1.9,2.2l1.9-2.2h0.8l-2.3,2.6l2.3,2.6h-0.8l-1.9-2.2l-1.9,2.2h-0.8L117.6,51.9z"/>
		<path class="st0" d="M125.5,52c-0.5,0.3-1,0.4-1.7,0.4h-1.4v2h-0.7v-5.2h2.1c0.7,0,1.2,0.1,1.6,0.4s0.7,0.6,0.7,1.1
			C126.1,51.3,125.9,51.7,125.5,52z M124.9,50c-0.3-0.2-0.8-0.3-1.4-0.3h-1.1V52h1.1c0.6,0,1.1-0.1,1.4-0.3c0.3-0.2,0.5-0.5,0.5-0.9
			C125.4,50.5,125.3,50.2,124.9,50z"/>
		<path class="st0" d="M128.2,49.7v1.9h2.5v0.5h-2.5v2h3.5v0.5h-4.2v-5.2h3.9v0.5H128.2z"/>
		<path class="st0" d="M133.5,54.4c-0.4-0.2-0.7-0.4-1-0.7c-0.2-0.3-0.4-0.6-0.5-0.9s-0.2-0.6-0.2-0.9c0-0.8,0.3-1.4,0.8-2
			s1.3-0.8,2.4-0.8c0.7,0,1.4,0.2,1.9,0.5l-0.1,0.4c-0.6-0.3-1.3-0.4-1.9-0.4c-0.7,0-1.2,0.2-1.7,0.6c-0.4,0.4-0.7,0.9-0.7,1.5
			c0,0.3,0,0.6,0.1,0.9c0.1,0.3,0.2,0.5,0.5,0.8c0.2,0.2,0.5,0.4,0.8,0.6c0.4,0.1,0.8,0.2,1.2,0.2c0.3,0,0.7-0.1,1-0.2
			c0.3-0.1,0.5-0.2,0.7-0.3l0.2,0.3c0,0-0.1,0.1-0.2,0.1c-0.1,0.1-0.2,0.1-0.4,0.2c-0.2,0.1-0.4,0.2-0.7,0.2
			c-0.3,0.1-0.6,0.1-0.9,0.1C134.4,54.6,133.9,54.5,133.5,54.4z"/>
		<path class="st0" d="M140.2,49.7v4.8h-0.7v-4.8h-2.3v-0.5h5.3v0.5H140.2z"/>
		<path class="st0" d="M148.7,49.7v4.8H148v-4.8h-2.3v-0.5h5.3v0.5H148.7z"/>
		<path class="st0" d="M156.5,52.1h-3.7v2.4h-0.7v-5.2h0.7v2.4h3.7v-2.4h0.7v5.2h-0.7V52.1z"/>
		<path class="st0" d="M159.6,49.7v1.9h2.5v0.5h-2.5v2h3.5v0.5h-4.2v-5.2h3.9v0.5H159.6z"/>
		<path class="st0" d="M172.4,49.3v3.3c0,0.6-0.2,1.1-0.7,1.5c-0.4,0.4-1.1,0.6-1.9,0.6c-0.8,0-1.5-0.2-1.9-0.6
			c-0.4-0.4-0.7-0.9-0.7-1.5v-3.3h0.7v3.3c0,0.5,0.2,0.9,0.5,1.2c0.3,0.3,0.8,0.4,1.4,0.4c0.6,0,1-0.1,1.4-0.4s0.5-0.7,0.5-1.2v-3.3
			H172.4z"/>
		<path class="st0" d="M174.8,54.5h-0.7v-5.2h1l3.5,4.3v-4.3h0.7v5.2h-0.7l-3.8-4.7V54.5z"/>
		<path class="st0" d="M181.6,49.7v1.9h2.5v0.5h-2.5v2h3.5v0.5h-4.2v-5.2h3.9v0.5H181.6z"/>
		<path class="st0" d="M188.2,51.9l-2.3-2.6h0.8l1.9,2.2l1.9-2.2h0.8l-2.3,2.6l2.3,2.6h-0.8l-1.9-2.2l-1.9,2.2h-0.8L188.2,51.9z"/>
		<path class="st0" d="M196.1,52c-0.5,0.3-1,0.4-1.7,0.4H193v2h-0.7v-5.2h2.1c0.7,0,1.2,0.1,1.6,0.4s0.7,0.6,0.7,1.1
			C196.8,51.3,196.5,51.7,196.1,52z M195.6,50c-0.3-0.2-0.8-0.3-1.4-0.3H193V52h1.1c0.6,0,1.1-0.1,1.4-0.3c0.3-0.2,0.5-0.5,0.5-0.9
			C196.1,50.5,195.9,50.2,195.6,50z"/>
		<path class="st0" d="M198.8,49.7v1.9h2.5v0.5h-2.5v2h3.5v0.5h-4.2v-5.2h3.9v0.5H198.8z"/>
		<path class="st0" d="M204.1,54.4c-0.4-0.2-0.7-0.4-1-0.7c-0.2-0.3-0.4-0.6-0.5-0.9s-0.2-0.6-0.2-0.9c0-0.8,0.3-1.4,0.8-2
			s1.3-0.8,2.4-0.8c0.7,0,1.4,0.2,1.9,0.5l-0.1,0.4c-0.6-0.3-1.3-0.4-1.9-0.4c-0.7,0-1.2,0.2-1.7,0.6c-0.4,0.4-0.7,0.9-0.7,1.5
			c0,0.3,0,0.6,0.1,0.9c0.1,0.3,0.2,0.5,0.5,0.8c0.2,0.2,0.5,0.4,0.8,0.6c0.4,0.1,0.8,0.2,1.2,0.2c0.3,0,0.7-0.1,1-0.2
			c0.3-0.1,0.5-0.2,0.7-0.3l0.2,0.3c0,0-0.1,0.1-0.2,0.1c-0.1,0.1-0.2,0.1-0.4,0.2c-0.2,0.1-0.4,0.2-0.7,0.2
			c-0.3,0.1-0.6,0.1-0.9,0.1C205,54.6,204.6,54.5,204.1,54.4z"/>
		<path class="st0" d="M210.8,49.7v4.8h-0.7v-4.8h-2.3v-0.5h5.3v0.5H210.8z"/>
		<path class="st0" d="M215,49.7v1.9h2.5v0.5H215v2h3.5v0.5h-4.2v-5.2h3.9v0.5H215z"/>
		<path class="st0" d="M225.1,52.9c-0.1,0.3-0.3,0.6-0.6,0.8c-0.3,0.2-0.6,0.4-1,0.6s-0.9,0.2-1.4,0.2h-2v-5.2h2
			c0.6,0,1.1,0.1,1.5,0.2c0.4,0.1,0.8,0.3,1,0.6s0.4,0.5,0.5,0.9c0.1,0.3,0.2,0.7,0.2,1C225.3,52.3,225.2,52.6,225.1,52.9z
			 M224.5,51.1c-0.1-0.2-0.2-0.5-0.4-0.7c-0.2-0.2-0.5-0.4-0.8-0.5c-0.4-0.1-0.8-0.2-1.3-0.2h-1.2v4.3h1.1c1.8,0,2.7-0.7,2.7-2.1
			C224.6,51.7,224.5,51.4,224.5,51.1z"/>
	</g>
</g>
<g id="Blue1_1_" class="st1">
	<g id="Blue1">
		<g>
			<polygon class="st2" points="30.5,54.8 27.8,59.3 63.8,59.3 63.8,54.8 			"/>
		</g>
	</g>
</g>
<g id="Blue2_1_" class="st1">
	<g id="Blue2">
		<g>
			<polygon class="st2" points="73.1,9.9 63.1,29 65.9,29.1 60.9,50.2 66.2,50.3 71.2,29.2 74.1,29.2 			"/>
		</g>
	</g>
	<rect x="60.1" y="49.5" transform="matrix(0.9726 0.2325 -0.2325 0.9726 14.2764 -13.0939)" class="st2" width="5.2" height="9"/>
	<polygon class="st2" points="64.1,59.3 62.5,59 62.8,57.8 64.3,58.3 	"/>
	<rect x="62.6" y="58.7" class="st2" width="1.5" height="0.5"/>
</g>
<g id="Blue3_1_" class="st3">
	<g id="Blue3" class="st4">
		<g>
			<polygon class="st2" points="61.1,49.8 58.9,58.9 64.3,58.6 66.4,49.5 			"/>
		</g>
	</g>
</g>
<g id="Blue4_1_" class="st1">
	<g id="Blue4">
		<g>
			<polygon class="st2" points="42.4,39.1 36.7,54.9 48,54.9 			"/>
		</g>
	</g>
</g>
<g id="Blue1_copy" class="st1">
	<g id="Blue1_4_">
		<g>
			<polygon class="st5" points="30,9.8 30,14.3 63.3,14.3 66,9.8 			"/>
		</g>
	</g>
</g>
<g id="Blue2_copy" class="st1">
	<g id="Blue2_3_">
		<g>
			<polygon class="st5" points="32.8,18.8 27.5,18.8 22.5,39.9 19.7,39.9 20.6,59.2 30.6,40.1 27.8,40 			"/>
		</g>
	</g>
	<rect x="28.5" y="10.6" transform="matrix(-0.9726 -0.2325 0.2325 -0.9726 57.7581 36.9313)" class="st5" width="5.2" height="9"/>
	<polygon class="st5" points="29.6,9.8 31.2,10.1 31,11.3 29.4,10.8 	"/>
	<rect x="29.6" y="9.8" class="st5" width="1.5" height="0.5"/>
</g>
<g id="Blue3_copy" class="st3">
	<g id="Blue3_4_" class="st4">
		<g>
			<polygon class="st2" points="61.1,49.8 58.9,58.9 64.3,58.6 66.4,49.5 			"/>
		</g>
	</g>
</g>
<g id="Blue4_copy" class="st1">
	<g id="Blue4_4_">
		<g>
			<polygon class="st5" points="45.8,14.2 51.4,30 57,14.2 			"/>
		</g>
	</g>
</g>
</svg>


